HIERARCHY
ROOT hips
{
  OFFSET 0 11.86390953 0.3628582958
  CHANNELS 6 Xposition Yposition Zposition Yrotation Xrotation Zrotation
  JOINT spine
  {
    OFFSET 0 0.05383551117999996 0
    CHANNELS 3 Yrotation Xrotation Zrotation
    JOINT chest
    {
      OFFSET 0 0.6394558760401424 0
      CHANNELS 3 Yrotation Xrotation Zrotation
      JOINT neck
      {
        OFFSET 0 2.720089088562982 0
        CHANNELS 3 Yrotation Xrotation Zrotation
        JOINT head
        {
          OFFSET 0 0.37880844870545777 0
          CHANNELS 3 Yrotation Xrotation Zrotation
          JOINT rightEye
          {
            OFFSET -0.42867780714 0.7547055649100001 0.7381831347
            CHANNELS 3 Yrotation Xrotation Zrotation
            End Site
            {
              OFFSET -0.42867780714 0.7547055649100001 0.7381831347
            }
          }
          JOINT leftEye
          {
            OFFSET 0.428676479 0.7547055559999993 0.7381844503
            CHANNELS 3 Yrotation Xrotation Zrotation
            End Site
            {
              OFFSET 0.428676479 0.7547055559999993 0.7381844503
            }
          }
          JOINT jaw
          {
            OFFSET -0.18933892286100001 1.5626303011000007 1.137441874206
            CHANNELS 3 Yrotation Xrotation Zrotation
            End Site
            {
              OFFSET -0.18933892286100001 1.5626303011000007 1.137441874206
            }
          }
        }
      }
      JOINT rightShoulder
      {
        OFFSET -0.6795351508 2.0665205 0
        CHANNELS 3 Yrotation Xrotation Zrotation
        JOINT rightUpperArm
        {
          OFFSET -0.7287400483531672 0 0
          CHANNELS 3 Yrotation Xrotation Zrotation
          JOINT rightLowerArm
          {
            OFFSET -1.9872982039174532 0 0
            CHANNELS 3 Yrotation Xrotation Zrotation
            JOINT rightHand
            {
              OFFSET -2.6451847532219275 0 0
              CHANNELS 3 Yrotation Xrotation Zrotation
              JOINT rightLittleProximal
              {
                OFFSET -0.8008804099999995 -0.09592044000000044 -0.26183688629999996
                CHANNELS 3 Yrotation Xrotation Zrotation
                JOINT rightLittleIntermediate
                {
                  OFFSET -0.2473955153999997 -0.02541697026000067 0.002370178700999967
                  CHANNELS 3 Yrotation Xrotation Zrotation
                  JOINT rightLittleDistal
                  {
                    OFFSET -0.163687229200001 -0.015790700860001117 -0.0004274845300000635
                    CHANNELS 3 Yrotation Xrotation Zrotation
                    End Site
                    {
                      OFFSET -0.163687229200001 -0.015790700860001117 -0.0004274845300000635
                    }
                  }
                }
              }
              JOINT rightRingProximal
              {
                OFFSET -0.8393382799999985 -0.06223833561000025 -0.09213143500000005
                CHANNELS 3 Yrotation Xrotation Zrotation
                JOINT rightRingIntermediate
                {
                  OFFSET -0.3284497260000011 -0.03264224524000103 0.009408593183000052
                  CHANNELS 3 Yrotation Xrotation Zrotation
                  JOINT rightRingDistal
                  {
                    OFFSET -0.19447660429999902 -0.021730899850000318 0.003074347969000052
                    CHANNELS 3 Yrotation Xrotation Zrotation
                    End Site
                    {
                      OFFSET -0.19447660429999902 -0.021730899850000318 0.003074347969000052
                    }
                  }
                }
              }
              JOINT rightMiddleProximal
              {
                OFFSET -0.8473005199999989 -0.06735503500000095 0.10541820299999995
                CHANNELS 3 Yrotation Xrotation Zrotation
                JOINT rightMiddleIntermediate
                {
                  OFFSET -0.3450455799999995 -0.02481901642000084 0.019012570390000032
                  CHANNELS 3 Yrotation Xrotation Zrotation
                  JOINT rightMiddleDistal
                  {
                    OFFSET -0.23542332000000088 -0.025003910029999243 0.0075583457949999905
                    CHANNELS 3 Yrotation Xrotation Zrotation
                    End Site
                    {
                      OFFSET -0.23542332000000088 -0.025003910029999243 0.0075583457949999905
                    }
                  }
                }
              }
              JOINT rightIndexProximal
              {
                OFFSET -0.8008568281999987 -0.09897839600000169 0.29462796
                CHANNELS 3 Yrotation Xrotation Zrotation
                JOINT rightIndexIntermediate
                {
                  OFFSET -0.30524754480000016 -0.024634122809999992 0.02743375304999998
                  CHANNELS 3 Yrotation Xrotation Zrotation
                  JOINT rightIndexDistal
                  {
                    OFFSET -0.23067378950000017 -0.016876459159999913 0.008484125099999983
                    CHANNELS 3 Yrotation Xrotation Zrotation
                    End Site
                    {
                      OFFSET -0.23067378950000017 -0.016876459159999913 0.008484125099999983
                    }
                  }
                }
              }
              JOINT rightThumbProximal
              {
                OFFSET -0.25574064999999935 -0.12833189930000155 0.22385698609999993
                CHANNELS 3 Yrotation Xrotation Zrotation
                JOINT rightThumbIntermediate
                {
                  OFFSET -0.22791743260000086 -0.07103586192999978 0.27385039
                  CHANNELS 3 Yrotation Xrotation Zrotation
                  JOINT rightThumbDistal
                  {
                    OFFSET -0.13610267659999975 -0.03369390969999997 0.14246511509999996
                    CHANNELS 3 Yrotation Xrotation Zrotation
                    End Site
                    {
                      OFFSET -0.13610267659999975 -0.03369390969999997 0.14246511509999996
                    }
                  }
                }
              }
            }
          }
        }
      }
      JOINT leftShoulder
      {
        OFFSET 0.6795338396 2.0665205 0
        CHANNELS 3 Yrotation Xrotation Zrotation
        JOINT leftUpperArm
        {
          OFFSET 0.7287383950230443 0 0
          CHANNELS 3 Yrotation Xrotation Zrotation
          JOINT leftLowerArm
          {
            OFFSET 1.9872997282019604 0 0
            CHANNELS 3 Yrotation Xrotation Zrotation
            JOINT leftHand
            {
              OFFSET 2.6451820781302327 0 0
              CHANNELS 3 Yrotation Xrotation Zrotation
              JOINT leftLittleProximal
              {
                OFFSET 0.8008804099999995 -0.09592306899999814 -0.2618342639000001
                CHANNELS 3 Yrotation Xrotation Zrotation
                JOINT leftLittleIntermediate
                {
                  OFFSET 0.2473981400000007 -0.02542352681000093 0.0023609995859999455
                  CHANNELS 3 Yrotation Xrotation Zrotation
                  JOINT leftLittleDistal
                  {
                    OFFSET 0.1636846068000002 -0.015794634789999318 -0.00043272972159996703
                    CHANNELS 3 Yrotation Xrotation Zrotation
                    End Site
                    {
                      OFFSET 0.1636846068000002 -0.015794634789999318 -0.00043272972159996703
                    }
                  }
                }
              }
              JOINT leftRingProximal
              {
                OFFSET 0.8393409199999996 -0.062242267999998324 -0.0921281570000001
                CHANNELS 3 Yrotation Xrotation Zrotation
                JOINT leftRingIntermediate
                {
                  OFFSET 0.3284471036000003 -0.03264224524000103 0.009405970574000042
                  CHANNELS 3 Yrotation Xrotation Zrotation
                  JOINT leftRingDistal
                  {
                    OFFSET 0.1944779099999996 -0.021732211159998904 0.003073036670000001
                    CHANNELS 3 Yrotation Xrotation Zrotation
                    End Site
                    {
                      OFFSET 0.1944779099999996 -0.021732211159998904 0.003073036670000001
                    }
                  }
                }
              }
              JOINT leftMiddleProximal
              {
                OFFSET 0.8473005200000001 -0.06736028199999788 0.1054214809999999
                CHANNELS 3 Yrotation Xrotation Zrotation
                JOINT leftMiddleIntermediate
                {
                  OFFSET 0.3450455799999995 -0.024824261000000014 0.019013225990000007
                  CHANNELS 3 Yrotation Xrotation Zrotation
                  JOINT leftMiddleDistal
                  {
                    OFFSET 0.2354259489999998 -0.025005222000000327 0.0075590014499999705
                    CHANNELS 3 Yrotation Xrotation Zrotation
                    End Site
                    {
                      OFFSET 0.2354259489999998 -0.025005222000000327 0.0075590014499999705
                    }
                  }
                }
              }
              JOINT leftIndexProximal
              {
                OFFSET 0.8008594516999996 -0.09898495199999946 0.29463124239999994
                CHANNELS 3 Yrotation Xrotation Zrotation
                JOINT leftIndexIntermediate
                {
                  OFFSET 0.30524754480000016 -0.024632811499998963 0.02743047472
                  CHANNELS 3 Yrotation Xrotation Zrotation
                  JOINT leftIndexDistal
                  {
                    OFFSET 0.23067378950000017 -0.016876459159999913 0.008481502700000004
                    CHANNELS 3 Yrotation Xrotation Zrotation
                    End Site
                    {
                      OFFSET 0.23067378950000017 -0.016876459159999913 0.008481502700000004
                    }
                  }
                }
              }
              JOINT leftThumbProximal
              {
                OFFSET 0.25574326469999953 -0.12833321050000013 0.22385764169999997
                CHANNELS 3 Yrotation Xrotation Zrotation
                JOINT leftThumbIntermediate
                {
                  OFFSET 0.22804987480000094 -0.07138466829999968 0.273648441
                  CHANNELS 3 Yrotation Xrotation Zrotation
                  JOINT leftThumbDistal
                  {
                    OFFSET 0.13614857189999907 -0.033867001519998885 0.14238119169999996
                    CHANNELS 3 Yrotation Xrotation Zrotation
                    End Site
                    {
                      OFFSET 0.13614857189999907 -0.033867001519998885 0.14238119169999996
                    }
                  }
                }
              }
            }
          }
        }
      }
    }
  }
  JOINT rightUpperLeg
  {
    OFFSET -0.9749898906000001 -1.8495733739999998 0
    CHANNELS 3 Yrotation Xrotation Zrotation
    JOINT rightLowerLeg
    {
      OFFSET 0 -4.1566544686813165 0
      CHANNELS 3 Yrotation Xrotation Zrotation
      JOINT rightFoot
      {
        OFFSET 0.14539718599999998 -4.225553926 -0.3666210900000001
        CHANNELS 3 Yrotation Xrotation Zrotation
        JOINT rightToes
        {
          OFFSET 0.1706738473 -0.9584117400000015 1.0093348617
          CHANNELS 3 Yrotation Xrotation Zrotation
          End Site
          {
            OFFSET 0.1706738473 -0.9584117400000015 1.0093348617
          }
        }
      }
    }
  }
  JOINT leftUpperLeg
  {
    OFFSET 0.9749898906000001 -1.8495733739999998 0
    CHANNELS 3 Yrotation Xrotation Zrotation
    JOINT leftLowerLeg
    {
      OFFSET 0 -4.156653488267941 0
      CHANNELS 3 Yrotation Xrotation Zrotation
      JOINT leftFoot
      {
        OFFSET -0.14537357999999995 -4.225555399999999 -0.36661124279999996
        CHANNELS 3 Yrotation Xrotation Zrotation
        JOINT leftToes
        {
          OFFSET -0.17066467000000002 -0.9584157000000019 1.0093348617
          CHANNELS 3 Yrotation Xrotation Zrotation
          End Site
          {
            OFFSET -0.17066467000000002 -0.9584157000000019 1.0093348617
          }
        }
      }
    }
  }
}
MOTION
Frames: 4
Frame Time: 0.03333333333333333
-0.3707209825515747 -0.5465715401928719 0.0013541289372369647 -3.4852733688742714 -3.589513010394003 -1.4674689969400263 -0.15266325184802076 0.8443804170404416 2.0705398678361 -0.06006828506617045 -0.6352385360733961 0.7403948575595605 0.3809397816831411 2.1115461945344003 -0.029731748892357024 1.566365809851892 -5.927527127573968 0.8841612374494632 0 0 0 0 0 0 0 0 0 -5.759773563330795 -0.6009685752176577 2.177845762882491 15.983419127226181 -3.518722174823428 75.54356662805283 7.894582439212152 0.0070022620965129855 -0.10164274335158802 4.600963102838881 12.563698241705394 2.9292050389809177 0.5186016857570998 -0.9853544781919812 26.603657280809912 -2.2374873499519676 0.39079219662309966 21.87774788742665 -1.240154390248427 0.09414809025897054 10.926800680747274 -4.532364946396296 1.280410163223297 20.38095932145859 -1.8333271285093782 0.2702247631030157 16.862184673643064 -1.1430075231644274 -0.004716763394247161 10.258241309503891 -1.7997554523676238 0.24557804241335068 20.000424470015986 -2.7280911226956377 0.6567321597167153 26.89951810061087 -1.3221733792157189 0.13798868428684952 11.90892139020918 2.427573710932619 -1.9557075156778332 26.191080102794974 -1.9923981632719052 0.3333548393668335 18.91674461478871 -0.6455848468894413 0.032430807127994676 5.851841494325983 -7.315334878908515 -1.317175205066551 -10.828125144315662 -24.23136294635093 -1.7130570535069376 6.148381761064134 -6.3362753589854055 -4.479777540255307 -3.2719450059385324 9.298930419601836 -1.2947341253315396 -3.67893476463858 -36.84485714361735 4.4295190192858245 -77.19745335151582 -10.440129871281997 0.012248666210535945 0.1341211457355307 4.475293544450516 -13.347582160894174 -4.449471534194504 5.213151482657647 1.937361499800237 -29.424527007421993 -2.2678766317006978 0.3399918967938645 -17.711392392000132 0.5257558396949776 0.04069611144622053 -4.97104797129602 3.4742191975640626 0.981051252330846 -22.079466409718965 2.011730042629577 0.3376724200425249 -19.042403022157846 1.020862907164643 0.08522877274093084 -9.53152909062234 -0.20575546803692896 -0.4477980039856602 -18.8888743137898 2.2260719199603756 0.4144797176320578 -21.137296127161353 0.7493959000222856 0.045564920462531446 -6.959667996885368 -0.4006099970448919 -1.0801220024737743 -21.454322771082932 1.4800472345025397 0.17903801236723121 -13.777069359273654 0.5266285951508124 0.023142972718928803 -4.97113655913342 12.075518090828854 2.498149577298957 8.062765587960056 8.387716188567925 -2.0293428487579375 3.9001172446988353 17.20309785542539 -0.09501273068694709 0.4106683772348569 -13.729879090606806 -10.33972364031926 -6.411541828480915 -6.970824541909784 30.05156167775935 -4.054207427950473 -1.3517356705340848 -14.921606009946727 9.61342821645793 -0.000006151529841857778 -0.003394526479492806 -7.754149057864386e-7 14.436244823071581 -11.413447388151457 10.008143681070234 11.027980322474058 30.84554322729652 6.835197415663843 3.703509060808537 -14.537359189148443 -12.352826627657848 0.0000015468538637766729 -0.0002211076246109171 8.3379599707526e-7
-0.3707534372806549 -0.5465448373120125 0.0004834174469579011 -3.4965553017427315 -3.5920271868950633 -1.4632011969579457 -0.151908698835487 0.8569322730183881 2.0713337554282587 -0.059822017876213426 -0.6236892164900538 0.7352558975859345 0.39181965926180845 2.1473675270778037 -0.03558436688359502 1.6092209281331205 -5.985865002699987 0.8984302881754949 0 0 0 0 0 0 0 0 0 -5.73877735066457 -0.5945909658584712 2.174121294107273 16.013496399220593 -3.554954475940314 75.52744759844718 7.935533529878527 0.007096895902304349 -0.10220421204263137 4.548831960468983 12.546654032271848 2.989409971087609 0.5157991100008575 -0.9813555605357057 26.570478387159817 -2.233845390210462 0.3894185763898042 21.842107790329784 -1.2390422311755134 0.09397036502882727 10.916326649084207 -4.523577938566733 1.2710646815434332 20.285045213855103 -1.8199053683273665 0.2661662255706658 16.7333209480027 -1.1379159350188455 -0.005943319716059044 10.210972362417921 -1.8048598590387108 0.249059176804777 19.917738923787983 -2.717126823079018 0.6512982835064226 26.787067973618377 -1.3195572487421363 0.13727708858005763 11.884179917082363 2.4494951926855606 -1.9508601740170002 26.118858368851914 -1.986518253507321 0.33134478226357306 18.859692462293342 -0.643925465376628 0.03225634712672477 5.8364795360644255 -7.3068502997216775 -1.3302259499685403 -10.836324911084622 -24.231361388549857 -1.7130513947274812 6.14835337014003 -6.303732803133939 -4.488937116351482 -3.2858117663798603 9.2960425393924 -1.29375374307394 -3.681276710496823 -36.8387720908088 4.404090265654659 -77.19762059809023 -10.472293590887015 0.012309531768525506 0.13455013380995146 4.4350097470239325 -13.397701805731359 -4.408835478766469 5.198567486270612 1.9255737935627069 -29.35822595891903 -2.262604189338466 0.3418588393237286 -17.763414327384496 0.525761068839851 0.04070416893703993 -4.971030238839434 3.487040864940944 0.9821519280874711 -21.887082868653298 2.0155358151516896 0.33900158202075 -19.07967927100143 1.0215773721839794 0.0853607075958969 -9.538266361547862 -0.24396664402855509 -0.45002439382532894 -18.656578765389135 2.228697047199169 0.41550277873873515 -21.16349268297047 0.749390671104438 0.04556420676089835 -6.959664606953142 -0.48761459427506293 -1.0891450184165585 -21.21656523029485 1.472453091511839 0.17718712888058985 -13.704393777442291 0.5266233660077051 0.0231284969188754 -4.971131030478979 12.162180297378857 2.705228652874298 7.982133357289165 8.48645265978064 -1.9916932261855391 3.901674154319171 17.252363262018328 -0.31359726840241525 0.7372433124333962 -13.739068195469422 -10.348740040903595 -6.424752393155929 -6.947040750627576 30.058423075791765 -4.026847285773546 -1.3492706037099236 -14.918667281479236 9.598424377522198 -0.000006151529841857778 -0.003394526479492806 -7.754149057864386e-7 14.438984268875723 -11.411004249725138 10.00478846491901 11.029582508115233 30.844330025861154 6.832449020029379 3.7139072048058006 -14.532890961601224 -12.352210183043534 0.000006099838551174885 -0.00022432509123248288 -7.886544735367795e-8
-0.3706858158111572 -0.5457151406567391 -0.0013457067543640733 -3.5157907022456656 -3.6022760138166867 -1.4467933800634216 -0.15072383668147324 0.8834241361167295 2.078855870165362 -0.05950832995910552 -0.6020252316923524 0.7284757643361136 0.4065120865207521 2.224668959362347 -0.05238933129785644 1.6709802100239401 -6.103288058273931 0.8734775457180578 0 0 0 0 0 0 0 0 0 -5.695227111917636 -0.5838020582361512 2.1355482674058917 16.09457447699712 -3.6136259512022932 75.51287212290556 7.993536935310432 0.007186621343373813 -0.10290641973666168 4.612472374277301 12.519052083128615 3.004987917947922 0.500609728558289 -0.9703574675193449 26.52473750534237 -2.222912346490633 0.3853753588265711 21.734997350442267 -1.2349864694767834 0.09323503815451992 10.878549916109247 -4.480693299424265 1.2437668063373304 20.10430323314159 -1.7933340983123185 0.25819891324554634 16.478473517918978 -1.1294168916000091 -0.007005128574850626 10.134081170727454 -1.7706198749877504 0.2400211266986382 19.700805354470837 -2.694183514197371 0.6399409322241522 26.55196618089097 -1.313261072338413 0.13620225119952645 11.825540514241743 2.4811162473442305 -1.942254078662062 26.010334606261605 -1.972126519827646 0.32648086037698826 18.720108342846792 -0.639026046674711 0.03176269579443352 5.791218524088681 -7.282028983126175 -1.334084021899456 -10.8379356025363 -24.231369022011698 -1.713063886750077 6.148350822413391 -6.236932567523588 -4.503533327561148 -3.3023137252835237 9.289186506389505 -1.2928885432364474 -3.672592296011344 -36.83804045972593 4.356001889847076 -77.2265638003115 -10.529726638182185 0.012458572802947392 0.13523216368152446 4.2703308985729205 -13.471429458267558 -4.199619063122523 5.196824761563098 1.920879022449761 -29.22978095382827 -2.25354381435066 0.3451147903134071 -17.852852622164352 0.5257577606053403 0.04070670024313775 -4.971043718483521 3.534436584385943 0.9941347157036372 -21.503662761895093 2.022757702599951 0.3414896823795743 -19.150717661935104 1.022089097950354 0.08544825951254126 -9.543041964845667 -0.3321346314728097 -0.45679951329706053 -18.15781948645533 2.2324033503008143 0.41694817561941905 -21.20041725101091 0.7493904043229148 0.04554909229453933 -6.959651480898514 -0.6929947508304873 -1.1114721146779796 -20.66981480278903 1.4700253624450232 0.1765882438343215 -13.681222055951931 0.5266269943927192 0.023133352756884166 -4.971143363631067 12.358391751491434 3.1080811220368085 7.840377411361155 8.681663038592227 -1.9149233897329487 3.902229239313254 17.344642032295265 -0.7246039354923108 1.3806712363757359 -13.787994951611823 -10.352379133209746 -6.4877875443718125 -6.8376223801994716 30.054185445476016 -3.8951276524142067 -1.338009712924049 -14.90675373770101 9.534160591180324 -0.000006151529841857778 -0.003394526479492806 -7.754149057864386e-7 14.440405212138083 -11.383430033616195 9.984846104455585 11.03427205243888 30.810310941864156 6.828365856116066 3.7393642543458916 -14.507536847090833 -12.350057030151202 0.000012232841992790685 -0.00021789015798935203 0.000002403444718142919
-0.3709057569503784 -0.5457246773999032 -0.0037488092202693224 -3.5350274406544324 -3.61579543720103 -1.4318264938931113 -0.1526041546750171 0.9192680685943497 2.092371942349347 -0.060256792732074106 -0.579267219377178 0.7279951593739475 0.41308767101998345 2.2976198919658053 -0.0712957292910672 1.7094105672239817 -6.191243716997362 0.7878448872565013 0 0 0 0 0 0 0 0 0 -5.645876427059784 -0.5742956036085296 2.058800845024821 16.2027240763672 -3.6670596160507167 75.5116617880989 8.048153278303833 0.007298090498426412 -0.10363221236443243 4.78333956037363 12.534898856204599 2.948829858188986 0.4790043716012894 -0.957526635427343 26.493654745851476 -2.2098910368191875 0.3805688259903156 21.607541214506426 -1.2301524850921468 0.09239591763147964 10.83342184929573 -4.428603801683355 1.214825008998694 19.94751599847838 -1.7708914417846229 0.25156214485637246 16.26352639787652 -1.1233334335601375 -0.007033703311788051 10.080236401560215 -1.7008023750957384 0.2187413149214763 19.450140236724117 -2.6738071288215832 0.629961626502013 26.34364779785654 -1.3070043445645645 0.13556110540879704 11.767972291749231 2.5041136463402935 -1.9353031568664842 25.927199562692554 -1.9578127791138065 0.3216490645828118 18.58143485958079 -0.6339340759864566 0.031263121408947325 5.744130383695188 -7.261031321550805 -1.3258325313325068 -10.834366460572754 -24.231364348608512 -1.7130683710659 6.1483749671266965 -6.181900853379574 -4.51158198699334 -3.3077709514588274 9.281064032861554 -1.2929525925665604 -3.652119566581663 -36.84173625946113 4.312866681833669 -77.27893631546104 -10.57565777779652 0.012555447766151901 0.13584453921492537 3.9662619319799646 -13.513313844683852 -3.8495928272880144 5.21947352648746 1.9331903573647427 -29.12829447786402 -2.2462854474456386 0.3477349628052095 -17.924426251315584 0.5257666181364415 0.04070345523545242 -4.971035638139623 3.600160792418584 1.0148156512588056 -21.178384699851993 2.0298508449060875 0.3439444055674463 -19.220558858227786 1.0218125647741592 0.08539519875547753 -9.540405726584837 -0.4174702090952268 -0.4637536706798142 -17.69877319666476 2.2358004159010405 0.4182638223933164 -21.234254505332018 0.7494011289401209 0.045569776301680166 -6.959665030694673 -0.9116969873999478 -1.1321856454945138 -20.092335547860944 1.4768132782614607 0.1782335802599177 -13.746199620493059 0.5266250201244033 0.02314263587851745 -4.971153441028421 12.521697150714205 3.4597665341071924 7.7174302542205035 8.864530918316657 -1.8514755072794242 3.9105073412097244 17.42958664723003 -1.084306132971112 1.9693822681018884 -13.779530988688363 -10.370113478030962 -6.494876158334783 -6.814368283046378 30.074317778508686 -3.8942838819663215 -1.3367953100448602 -14.903573134509552 9.524842018406632 -0.000006151529841857778 -0.003394526479492806 -7.754149057864386e-7 14.435820838484043 -11.378134104423903 9.965233463511764 11.043610968872086 30.807782064039355 6.8402565807356845 3.7578612735420447 -14.49067569322942 -12.353094549501957 -0.0000015353214269460608 -0.00022754258390915327 1.9764580637667817e-8
